<svg width="100" height="100" xmlns="http://www.w3.org/2000/svg">
  <path d="M0 90 100 90 90 100 10 100 Z" stroke-width="3" stroke="#24292e" fill="transparent"/>
  <path d="M20 30 30 30 25 40 45 40 45 75 55 75 55 40 75 40 70 30 80 30 90 50 50 90 10 50 Z" fill="#24292e"/>
  <path d="M100 50 82 80 65 80 70 75 80 75 95 50 90 40 95 40 Z" fill="#24292e"/>
  <path d="M40 10 35 20 40 20 35 30" stroke-width="3" stroke="#24292e" fill="transparent"/>
  <path d="M50 0 V 30" stroke-width="3" stroke="#24292e" fill="transparent"/>
  <path d="M60 10 65 20 60 20 65 30" stroke-width="3" stroke="#24292e" fill="transparent"/>
</svg>